<?xml version="1.0" encoding="us-ascii" standalone="no"?><svg xmlns="http://www.w3.org/2000/svg" xmlns:xlink="http://www.w3.org/1999/xlink" contentStyleType="text/css" height="487px" preserveAspectRatio="none" style="width:472px;height:487px;background:#FFFFFF;" version="1.1" viewBox="0 0 472 487" width="472px" zoomAndPan="magnify"><defs/><g><!--class Term--><g id="elem_Term"><rect codeLine="4" fill="#F1F1F1" height="105.2038" id="Term" rx="2.5" ry="2.5" style="stroke:#181818;stroke-width:0.5;" width="324" x="7" y="210"/><ellipse cx="147.25" cy="226" fill="#ADD1B2" rx="11" ry="11" style="stroke:#181818;stroke-width:1.0;"/><path d="M150.2188,231.6406 Q149.6406,231.9375 149,232.0781 Q148.3594,232.2344 147.6563,232.2344 Q145.1563,232.2344 143.8281,230.5938 Q142.5156,228.9375 142.5156,225.8125 Q142.5156,222.6875 143.8281,221.0313 Q145.1563,219.375 147.6563,219.375 Q148.3594,219.375 149,219.5313 Q149.6563,219.6875 150.2188,219.9844 L150.2188,222.7031 Q149.5938,222.125 149,221.8594 Q148.4063,221.5781 147.7813,221.5781 Q146.4375,221.5781 145.75,222.6563 Q145.0625,223.7188 145.0625,225.8125 Q145.0625,227.9063 145.75,228.9844 Q146.4375,230.0469 147.7813,230.0469 Q148.4063,230.0469 149,229.7813 Q149.5938,229.5 150.2188,228.9219 L150.2188,231.6406 Z " fill="#000000"/><text fill="#000000" font-family="sans-serif" font-size="14" lengthAdjust="spacing" textLength="35" x="167.75" y="231.432">Term</text><line style="stroke:#181818;stroke-width:0.5;" x1="8" x2="330" y1="242" y2="242"/><rect fill="none" height="6" style="stroke:#C82930;stroke-width:1.0;" width="6" x="15" y="254.034"/><text fill="#000000" font-family="sans-serif" font-size="14" lengthAdjust="spacing" textLength="64" x="27" y="260.9659">name: str</text><rect fill="none" height="6" style="stroke:#C82930;stroke-width:1.0;" width="6" x="15" y="273.1019"/><text fill="#000000" font-family="sans-serif" font-size="14" lengthAdjust="spacing" textLength="298" x="27" y="280.0339">membership_function: Callable[[float], float]</text><line style="stroke:#181818;stroke-width:0.5;" x1="8" x2="330" y1="288.1358" y2="288.1358"/><ellipse cx="18" cy="303.1698" fill="#84BE84" rx="3" ry="3" style="stroke:#038048;stroke-width:1.0;"/><text fill="#000000" font-family="sans-serif" font-size="14" lengthAdjust="spacing" textLength="190" x="27" y="307.1018">evaluate(value: float) -&gt; float</text></g><!--class LinguisticVariable--><g id="elem_LinguisticVariable"><rect codeLine="11" fill="#F1F1F1" height="105.2038" id="LinguisticVariable" rx="2.5" ry="2.5" style="stroke:#181818;stroke-width:0.5;" width="379" x="86.5" y="375"/><ellipse cx="211.75" cy="391" fill="#ADD1B2" rx="11" ry="11" style="stroke:#181818;stroke-width:1.0;"/><path d="M214.7188,396.6406 Q214.1406,396.9375 213.5,397.0781 Q212.8594,397.2344 212.1563,397.2344 Q209.6563,397.2344 208.3281,395.5938 Q207.0156,393.9375 207.0156,390.8125 Q207.0156,387.6875 208.3281,386.0313 Q209.6563,384.375 212.1563,384.375 Q212.8594,384.375 213.5,384.5313 Q214.1563,384.6875 214.7188,384.9844 L214.7188,387.7031 Q214.0938,387.125 213.5,386.8594 Q212.9063,386.5781 212.2813,386.5781 Q210.9375,386.5781 210.25,387.6563 Q209.5625,388.7188 209.5625,390.8125 Q209.5625,392.9063 210.25,393.9844 Q210.9375,395.0469 212.2813,395.0469 Q212.9063,395.0469 213.5,394.7813 Q214.0938,394.5 214.7188,393.9219 L214.7188,396.6406 Z " fill="#000000"/><text fill="#000000" font-family="sans-serif" font-size="14" lengthAdjust="spacing" textLength="120" x="232.25" y="396.432">LinguisticVariable</text><line style="stroke:#181818;stroke-width:0.5;" x1="87.5" x2="464.5" y1="407" y2="407"/><rect fill="none" height="6" style="stroke:#C82930;stroke-width:1.0;" width="6" x="94.5" y="419.034"/><text fill="#000000" font-family="sans-serif" font-size="14" lengthAdjust="spacing" textLength="64" x="106.5" y="425.9659">name: str</text><rect fill="none" height="6" style="stroke:#C82930;stroke-width:1.0;" width="6" x="94.5" y="438.1019"/><text fill="#000000" font-family="sans-serif" font-size="14" lengthAdjust="spacing" textLength="115" x="106.5" y="445.0339">terms: List[Term]</text><rect fill="none" height="6" style="stroke:#C82930;stroke-width:1.0;" width="6" x="94.5" y="457.1698"/><text fill="#000000" font-family="sans-serif" font-size="14" lengthAdjust="spacing" textLength="353" x="106.5" y="464.1018">value: float # &#1053;&#1091;&#1078;&#1085;&#1086; &#1076;&#1083;&#1103; &#1079;&#1072;&#1076;&#1072;&#1085;&#1080;&#1103; &#1095;&#1077;&#1090;&#1082;&#1086;&#1075;&#1086; &#1079;&#1085;&#1072;&#1095;&#1077;&#1085;&#1080;&#1103;</text><line style="stroke:#181818;stroke-width:0.5;" x1="87.5" x2="464.5" y1="472.2038" y2="472.2038"/></g><!--class Rule--><g id="elem_Rule"><rect codeLine="17" fill="#F1F1F1" height="143.3396" id="Rule" rx="2.5" ry="2.5" style="stroke:#181818;stroke-width:0.5;" width="348" x="102" y="7"/><ellipse cx="256.75" cy="23" fill="#ADD1B2" rx="11" ry="11" style="stroke:#181818;stroke-width:1.0;"/><path d="M259.7188,28.6406 Q259.1406,28.9375 258.5,29.0781 Q257.8594,29.2344 257.1563,29.2344 Q254.6563,29.2344 253.3281,27.5938 Q252.0156,25.9375 252.0156,22.8125 Q252.0156,19.6875 253.3281,18.0313 Q254.6563,16.375 257.1563,16.375 Q257.8594,16.375 258.5,16.5313 Q259.1563,16.6875 259.7188,16.9844 L259.7188,19.7031 Q259.0938,19.125 258.5,18.8594 Q257.9063,18.5781 257.2813,18.5781 Q255.9375,18.5781 255.25,19.6563 Q254.5625,20.7188 254.5625,22.8125 Q254.5625,24.9063 255.25,25.9844 Q255.9375,27.0469 257.2813,27.0469 Q257.9063,27.0469 258.5,26.7813 Q259.0938,26.5 259.7188,25.9219 L259.7188,28.6406 Z " fill="#000000"/><text fill="#000000" font-family="sans-serif" font-size="14" lengthAdjust="spacing" textLength="30" x="277.25" y="28.432">Rule</text><line style="stroke:#181818;stroke-width:0.5;" x1="103" x2="449" y1="39" y2="39"/><rect fill="none" height="6" style="stroke:#C82930;stroke-width:1.0;" width="6" x="110" y="51.034"/><text fill="#000000" font-family="sans-serif" font-size="14" lengthAdjust="spacing" textLength="310" x="122" y="57.9659">input_variables: Dict[LinguisticVariable, Term]</text><rect fill="none" height="6" style="stroke:#C82930;stroke-width:1.0;" width="6" x="110" y="70.1019"/><text fill="#000000" font-family="sans-serif" font-size="14" lengthAdjust="spacing" textLength="233" x="122" y="77.0339">output_variable: LinguisticVariable</text><rect fill="none" height="6" style="stroke:#C82930;stroke-width:1.0;" width="6" x="110" y="89.1698"/><text fill="#000000" font-family="sans-serif" font-size="14" lengthAdjust="spacing" textLength="121" x="122" y="96.1018">ouput_term: Term</text><line style="stroke:#181818;stroke-width:0.5;" x1="103" x2="449" y1="104.2038" y2="104.2038"/><ellipse cx="113" cy="119.2377" fill="#84BE84" rx="3" ry="3" style="stroke:#038048;stroke-width:1.0;"/><text fill="#000000" font-family="sans-serif" font-size="14" lengthAdjust="spacing" textLength="322" x="122" y="123.1697">matches(variable_name: str, value: float) -&gt; float</text><ellipse cx="113" cy="138.3056" fill="#84BE84" rx="3" ry="3" style="stroke:#038048;stroke-width:1.0;"/><text fill="#000000" font-family="sans-serif" font-size="14" lengthAdjust="spacing" textLength="310" x="122" y="142.2376">output_func(min_value: float) -&gt; Callable[float]</text></g><!--reverse link Term to LinguisticVariable--><g id="link_Term_LinguisticVariable"><path codeLine="26" d="M209.4448,325.102 C221.9948,344.222 229.63,355.87 242.18,374.98 " fill="none" id="Term-backto-LinguisticVariable" style="stroke:#181818;stroke-width:1.0;"/><polygon fill="#181818" points="202.86,315.07,202.8084,322.2809,209.4448,325.102,209.4964,317.8911,202.86,315.07" style="stroke:#181818;stroke-width:1.0;"/><text fill="#000000" font-family="sans-serif" font-size="13" lengthAdjust="spacing" textLength="7" x="199.9396" y="337.207">1</text><text fill="#000000" font-family="sans-serif" font-size="13" lengthAdjust="spacing" textLength="34" x="201.0334" y="363.3314">many</text></g><!--reverse link Rule to LinguisticVariable--><g id="link_Rule_LinguisticVariable"><path codeLine="27" d="M329.8574,160.7177 C340.1074,179.3777 343.66,189.53 349,210 C360.77,255.16 362.34,270.28 349,315 C342.68,336.17 330.92,357.07 318.66,374.94 " fill="none" id="Rule-backto-LinguisticVariable" style="stroke:#181818;stroke-width:1.0;"/><polygon fill="#181818" points="324.08,150.2,323.4628,157.3846,329.8574,160.7177,330.4746,153.533,324.08,150.2" style="stroke:#181818;stroke-width:1.0;"/><text fill="#000000" font-family="sans-serif" font-size="13" lengthAdjust="spacing" textLength="7" x="321.6773" y="172.3865">1</text><text fill="#000000" font-family="sans-serif" font-size="13" lengthAdjust="spacing" textLength="34" x="288.2684" y="363.2858">many</text></g><!--reverse link Rule to Term--><g id="link_Rule_Term"><path codeLine="28" d="M228.3974,160.4741 C216.7074,180.3541 210.29,191.26 199.39,209.82 " fill="none" id="Rule-backto-Term" style="stroke:#181818;stroke-width:1.0;"/><polygon fill="#181818" points="234.48,150.13,227.9906,153.2745,228.3974,160.4741,234.8867,157.3296,234.48,150.13" style="stroke:#181818;stroke-width:1.0;"/><text fill="#000000" font-family="sans-serif" font-size="13" lengthAdjust="spacing" textLength="7" x="222.8373" y="172.3093">1</text><text fill="#000000" font-family="sans-serif" font-size="13" lengthAdjust="spacing" textLength="34" x="167.273" y="198.1489">many</text></g><!--SRC=[XPAzJiCm4CVtFCKf30H81jOCB30o8SGILP4RdDQIxLJnfH92B30myWIyGoG-Ya3q6Pmtgksa8L9JuSNs-Nztlxlp8N2Q8s019PlD4MvPIJDaXVIyZ1Ebu9gM0kuzC2i2IGIDGM7PtGKLKrggELkaUIMTNmpdX7CovJH9SbuGd8JGxfvpEg5BmYk2DB2xYUOUZo0wQq_UmpRp9PEpYYbasGqfcOsubmCDf8gDXyB40ayw-p05781-RPxqf_xLQz3l-gTv0RtIjJdMnlPbhisp_cWUzRTUwpShMXbxROtj-n_RLJMWON9HORhi80t71SimsSKFOSXML3XqYqVgxPLMQ6kCNOIkaO9WDgSgs4P8-ww4iAUtpgzBR0SM22RJ7Mq_m6vkfcht2_nJ7uwZ27n1v9q_nklQygyCHdMkiWq0]--></g></svg>