<?xml version="1.0" encoding="us-ascii" standalone="no"?><svg xmlns="http://www.w3.org/2000/svg" xmlns:xlink="http://www.w3.org/1999/xlink" contentStyleType="text/css" height="157px" preserveAspectRatio="none" style="width:847px;height:157px;background:#FFFFFF;" version="1.1" viewBox="0 0 847 157" width="847px" zoomAndPan="magnify"><defs/><g><!--class Term--><g id="elem_Term"><rect codeLine="4" fill="#F1F1F1" height="105.2038" id="Term" rx="2.5" ry="2.5" style="stroke:#181818;stroke-width:0.5;" width="81" x="7" y="45.5"/><ellipse cx="28.3" cy="61.5" fill="#ADD1B2" rx="11" ry="11" style="stroke:#181818;stroke-width:1.0;"/><path d="M31.2688,67.1406 Q30.6906,67.4375 30.05,67.5781 Q29.4094,67.7344 28.7063,67.7344 Q26.2063,67.7344 24.8781,66.0938 Q23.5656,64.4375 23.5656,61.3125 Q23.5656,58.1875 24.8781,56.5313 Q26.2063,54.875 28.7063,54.875 Q29.4094,54.875 30.05,55.0313 Q30.7063,55.1875 31.2688,55.4844 L31.2688,58.2031 Q30.6438,57.625 30.05,57.3594 Q29.4563,57.0781 28.8313,57.0781 Q27.4875,57.0781 26.8,58.1563 Q26.1125,59.2188 26.1125,61.3125 Q26.1125,63.4063 26.8,64.4844 Q27.4875,65.5469 28.8313,65.5469 Q29.4563,65.5469 30.05,65.2813 Q30.6438,65 31.2688,64.4219 L31.2688,67.1406 Z " fill="#000000"/><text fill="#000000" font-family="sans-serif" font-size="14" lengthAdjust="spacing" textLength="35" x="43.7" y="66.932">Term</text><line style="stroke:#181818;stroke-width:0.5;" x1="8" x2="87" y1="77.5" y2="77.5"/><text fill="#000000" font-family="sans-serif" font-size="14" lengthAdjust="spacing" textLength="64" x="13" y="96.4659">name: str</text><text fill="#000000" font-family="sans-serif" font-size="14" lengthAdjust="spacing" textLength="55" x="13" y="115.5339">type: str</text><text fill="#000000" font-family="sans-serif" font-size="14" lengthAdjust="spacing" textLength="69" x="13" y="134.6018">value: Any</text><line style="stroke:#181818;stroke-width:0.5;" x1="8" x2="87" y1="142.7038" y2="142.7038"/></g><!--class Atom--><g id="elem_Atom"><rect codeLine="10" fill="#F1F1F1" height="105.2038" id="Atom" rx="2.5" ry="2.5" style="stroke:#181818;stroke-width:0.5;" width="118" x="148" y="45.5"/><ellipse cx="185.95" cy="61.5" fill="#ADD1B2" rx="11" ry="11" style="stroke:#181818;stroke-width:1.0;"/><path d="M188.9188,67.1406 Q188.3406,67.4375 187.7,67.5781 Q187.0594,67.7344 186.3563,67.7344 Q183.8563,67.7344 182.5281,66.0938 Q181.2156,64.4375 181.2156,61.3125 Q181.2156,58.1875 182.5281,56.5313 Q183.8563,54.875 186.3563,54.875 Q187.0594,54.875 187.7,55.0313 Q188.3563,55.1875 188.9188,55.4844 L188.9188,58.2031 Q188.2938,57.625 187.7,57.3594 Q187.1063,57.0781 186.4813,57.0781 Q185.1375,57.0781 184.45,58.1563 Q183.7625,59.2188 183.7625,61.3125 Q183.7625,63.4063 184.45,64.4844 Q185.1375,65.5469 186.4813,65.5469 Q187.1063,65.5469 187.7,65.2813 Q188.2938,65 188.9188,64.4219 L188.9188,67.1406 Z " fill="#000000"/><text fill="#000000" font-family="sans-serif" font-size="14" lengthAdjust="spacing" textLength="35" x="205.05" y="66.932">Atom</text><line style="stroke:#181818;stroke-width:0.5;" x1="149" x2="265" y1="77.5" y2="77.5"/><text fill="#000000" font-family="sans-serif" font-size="14" lengthAdjust="spacing" textLength="64" x="154" y="96.4659">name: str</text><text fill="#000000" font-family="sans-serif" font-size="14" lengthAdjust="spacing" textLength="106" x="154" y="115.5339">args: List[Term]</text><text fill="#000000" font-family="sans-serif" font-size="14" lengthAdjust="spacing" textLength="99" x="154" y="134.6018">isPositive: bool</text><line style="stroke:#181818;stroke-width:0.5;" x1="149" x2="265" y1="142.7038" y2="142.7038"/></g><!--class Conjunct--><g id="elem_Conjunct"><rect codeLine="16" fill="#F1F1F1" height="67.0679" id="Conjunct" rx="2.5" ry="2.5" style="stroke:#181818;stroke-width:0.5;" width="118" x="326" y="64.5"/><ellipse cx="352.7" cy="80.5" fill="#ADD1B2" rx="11" ry="11" style="stroke:#181818;stroke-width:1.0;"/><path d="M355.6688,86.1406 Q355.0906,86.4375 354.45,86.5781 Q353.8094,86.7344 353.1063,86.7344 Q350.6063,86.7344 349.2781,85.0938 Q347.9656,83.4375 347.9656,80.3125 Q347.9656,77.1875 349.2781,75.5313 Q350.6063,73.875 353.1063,73.875 Q353.8094,73.875 354.45,74.0313 Q355.1063,74.1875 355.6688,74.4844 L355.6688,77.2031 Q355.0438,76.625 354.45,76.3594 Q353.8563,76.0781 353.2313,76.0781 Q351.8875,76.0781 351.2,77.1563 Q350.5125,78.2188 350.5125,80.3125 Q350.5125,82.4063 351.2,83.4844 Q351.8875,84.5469 353.2313,84.5469 Q353.8563,84.5469 354.45,84.2813 Q355.0438,84 355.6688,83.4219 L355.6688,86.1406 Z " fill="#000000"/><text fill="#000000" font-family="sans-serif" font-size="14" lengthAdjust="spacing" textLength="60" x="369.3" y="85.932">Conjunct</text><line style="stroke:#181818;stroke-width:0.5;" x1="327" x2="443" y1="96.5" y2="96.5"/><text fill="#000000" font-family="sans-serif" font-size="14" lengthAdjust="spacing" textLength="106" x="332" y="115.4659">args: List[Atom]</text><line style="stroke:#181818;stroke-width:0.5;" x1="327" x2="443" y1="123.5679" y2="123.5679"/></g><!--class Implication--><g id="elem_Implication"><rect codeLine="20" fill="#F1F1F1" height="86.1358" id="Implication" rx="2.5" ry="2.5" style="stroke:#181818;stroke-width:0.5;" width="113" x="504" y="7"/><ellipse cx="521.25" cy="23" fill="#ADD1B2" rx="11" ry="11" style="stroke:#181818;stroke-width:1.0;"/><path d="M524.2188,28.6406 Q523.6406,28.9375 523,29.0781 Q522.3594,29.2344 521.6563,29.2344 Q519.1563,29.2344 517.8281,27.5938 Q516.5156,25.9375 516.5156,22.8125 Q516.5156,19.6875 517.8281,18.0313 Q519.1563,16.375 521.6563,16.375 Q522.3594,16.375 523,16.5313 Q523.6563,16.6875 524.2188,16.9844 L524.2188,19.7031 Q523.5938,19.125 523,18.8594 Q522.4063,18.5781 521.7813,18.5781 Q520.4375,18.5781 519.75,19.6563 Q519.0625,20.7188 519.0625,22.8125 Q519.0625,24.9063 519.75,25.9844 Q520.4375,27.0469 521.7813,27.0469 Q522.4063,27.0469 523,26.7813 Q523.5938,26.5 524.2188,25.9219 L524.2188,28.6406 Z " fill="#000000"/><text fill="#000000" font-family="sans-serif" font-size="14" lengthAdjust="spacing" textLength="76" x="535.75" y="28.432">Implication</text><line style="stroke:#181818;stroke-width:0.5;" x1="505" x2="616" y1="39" y2="39"/><text fill="#000000" font-family="sans-serif" font-size="14" lengthAdjust="spacing" textLength="90" x="510" y="57.9659">left: Conjunct</text><text fill="#000000" font-family="sans-serif" font-size="14" lengthAdjust="spacing" textLength="101" x="510" y="77.0339">right: Conjunct</text><line style="stroke:#181818;stroke-width:0.5;" x1="505" x2="616" y1="85.1358" y2="85.1358"/></g><!--class Knowledge--><g id="elem_Knowledge"><rect codeLine="25" fill="#F1F1F1" height="86.1358" id="Knowledge" rx="2.5" ry="2.5" style="stroke:#181818;stroke-width:0.5;" width="163" x="677" y="55"/><ellipse cx="717.2" cy="71" fill="#ADD1B2" rx="11" ry="11" style="stroke:#181818;stroke-width:1.0;"/><path d="M720.1688,76.6406 Q719.5906,76.9375 718.95,77.0781 Q718.3094,77.2344 717.6063,77.2344 Q715.1063,77.2344 713.7781,75.5938 Q712.4656,73.9375 712.4656,70.8125 Q712.4656,67.6875 713.7781,66.0313 Q715.1063,64.375 717.6063,64.375 Q718.3094,64.375 718.95,64.5313 Q719.6063,64.6875 720.1688,64.9844 L720.1688,67.7031 Q719.5438,67.125 718.95,66.8594 Q718.3563,66.5781 717.7313,66.5781 Q716.3875,66.5781 715.7,67.6563 Q715.0125,68.7188 715.0125,70.8125 Q715.0125,72.9063 715.7,73.9844 Q716.3875,75.0469 717.7313,75.0469 Q718.3563,75.0469 718.95,74.7813 Q719.5438,74.5 720.1688,73.9219 L720.1688,76.6406 Z " fill="#000000"/><text fill="#000000" font-family="sans-serif" font-size="14" lengthAdjust="spacing" textLength="75" x="736.8" y="76.432">Knowledge</text><line style="stroke:#181818;stroke-width:0.5;" x1="678" x2="839" y1="87" y2="87"/><text fill="#000000" font-family="sans-serif" font-size="14" lengthAdjust="spacing" textLength="98" x="683" y="105.9659">data: Conjunct</text><text fill="#000000" font-family="sans-serif" font-size="14" lengthAdjust="spacing" textLength="151" x="683" y="125.0339">rules: List[Implication]</text><line style="stroke:#181818;stroke-width:0.5;" x1="678" x2="839" y1="133.1358" y2="133.1358"/></g><!--reverse link Term to Atom--><g id="link_Term_Atom"><path codeLine="30" d="M106.24,98 C124.29,98 127.99,98 147.81,98 " fill="none" id="Term-backto-Atom" style="stroke:#181818;stroke-width:1.0;"/><polygon fill="none" points="88.24,98,106.24,104,106.24,92,88.24,98" style="stroke:#181818;stroke-width:1.0;"/></g><!--reverse link Atom to Conjunct--><g id="link_Atom_Conjunct"><path codeLine="31" d="M284.12,98 C303.34,98 306.72,98 325.94,98 " fill="none" id="Atom-backto-Conjunct" style="stroke:#181818;stroke-width:1.0;"/><polygon fill="none" points="266.12,98,284.12,104,284.12,92,266.12,98" style="stroke:#181818;stroke-width:1.0;"/></g><!--reverse link Conjunct to Implication--><g id="link_Conjunct_Implication"><path codeLine="32" d="M461.6081,77.0797 C480.7981,71.7697 484.74,70.68 503.75,65.42 " fill="none" id="Conjunct-backto-Implication" style="stroke:#181818;stroke-width:1.0;"/><polygon fill="none" points="444.26,81.88,463.2082,82.8624,460.008,71.297,444.26,81.88" style="stroke:#181818;stroke-width:1.0;"/></g><!--reverse link Conjunct to Knowledge--><g id="link_Conjunct_Knowledge"><path codeLine="33" d="M462.0306,106.9787 C481.0806,108.9887 484.46,109.01 504,110 C554.16,112.54 566.82,112.14 617,110 C636.44,109.17 657.36,107.7 676.96,106.06 " fill="none" id="Conjunct-backto-Knowledge" style="stroke:#181818;stroke-width:1.0;"/><polygon fill="none" points="444.13,105.09,461.4011,112.9456,462.6602,101.0119,444.13,105.09" style="stroke:#181818;stroke-width:1.0;"/></g><!--reverse link Implication to Knowledge--><g id="link_Implication_Knowledge"><path codeLine="34" d="M634.6245,67.9069 C653.1845,72.4469 656.77,73.33 676.84,78.25 " fill="none" id="Implication-backto-Knowledge" style="stroke:#181818;stroke-width:1.0;"/><polygon fill="none" points="617.14,63.63,633.1989,73.7351,636.0501,62.0788,617.14,63.63" style="stroke:#181818;stroke-width:1.0;"/></g><!--SRC=[RL113e8m4Bpt5Vq07o1UY2UZ1m_U38TQAgvPMj8k6AB-NTX0QOYzpUpEp4xHt4cIanxg1yaAlD44pWgXKOKWByOtyYta-AngJ2u3UKOqj0dg5NOZBEmWlekq8FTVgdmTSdc2GDV9lcGImja58EZ7nPjpkFhidNrsLjFibQYdX79TF3GjWbRJ-VCkZkNoQC0Kzqoug3vQzq9JrMRMLehKLjkXMRAJC3w1FshtoJBkBRWym-WGUp2Tw3UJU8X82sr6Fm00]--></g></svg>