<?xml version="1.0" encoding="us-ascii" standalone="no"?><svg xmlns="http://www.w3.org/2000/svg" xmlns:xlink="http://www.w3.org/1999/xlink" contentStyleType="text/css" height="328px" preserveAspectRatio="none" style="width:684px;height:328px;background:#FFFFFF;" version="1.1" viewBox="0 0 684 328" width="684px" zoomAndPan="magnify"><defs/><g><!--class Node--><g id="elem_Node"><rect codeLine="4" fill="#F1F1F1" height="67.0679" id="Node" rx="2.5" ry="2.5" style="stroke:#181818;stroke-width:0.5;" width="110" x="567" y="131"/><ellipse cx="600.9" cy="147" fill="#ADD1B2" rx="11" ry="11" style="stroke:#181818;stroke-width:1.0;"/><path d="M603.8688,152.6406 Q603.2906,152.9375 602.65,153.0781 Q602.0094,153.2344 601.3063,153.2344 Q598.8063,153.2344 597.4781,151.5938 Q596.1656,149.9375 596.1656,146.8125 Q596.1656,143.6875 597.4781,142.0313 Q598.8063,140.375 601.3063,140.375 Q602.0094,140.375 602.65,140.5313 Q603.3063,140.6875 603.8688,140.9844 L603.8688,143.7031 Q603.2438,143.125 602.65,142.8594 Q602.0563,142.5781 601.4313,142.5781 Q600.0875,142.5781 599.4,143.6563 Q598.7125,144.7188 598.7125,146.8125 Q598.7125,148.9063 599.4,149.9844 Q600.0875,151.0469 601.4313,151.0469 Q602.0563,151.0469 602.65,150.7813 Q603.2438,150.5 603.8688,149.9219 L603.8688,152.6406 Z " fill="#000000"/><text fill="#000000" font-family="sans-serif" font-size="14" lengthAdjust="spacing" textLength="36" x="619.1" y="152.432">Node</text><line style="stroke:#181818;stroke-width:0.5;" x1="568" x2="676" y1="163" y2="163"/><ellipse cx="578" cy="178.034" fill="none" rx="3" ry="3" style="stroke:#038048;stroke-width:1.0;"/><text fill="#000000" font-family="sans-serif" font-size="14" lengthAdjust="spacing" textLength="84" x="587" y="181.9659">number : int</text><line style="stroke:#181818;stroke-width:0.5;" x1="568" x2="676" y1="190.0679" y2="190.0679"/></g><!--class Rule--><g id="elem_Rule"><rect codeLine="8" fill="#F1F1F1" height="105.2038" id="Rule" rx="2.5" ry="2.5" style="stroke:#181818;stroke-width:0.5;" width="168" x="278" y="112"/><ellipse cx="342.75" cy="128" fill="#ADD1B2" rx="11" ry="11" style="stroke:#181818;stroke-width:1.0;"/><path d="M345.7188,133.6406 Q345.1406,133.9375 344.5,134.0781 Q343.8594,134.2344 343.1563,134.2344 Q340.6563,134.2344 339.3281,132.5938 Q338.0156,130.9375 338.0156,127.8125 Q338.0156,124.6875 339.3281,123.0313 Q340.6563,121.375 343.1563,121.375 Q343.8594,121.375 344.5,121.5313 Q345.1563,121.6875 345.7188,121.9844 L345.7188,124.7031 Q345.0938,124.125 344.5,123.8594 Q343.9063,123.5781 343.2813,123.5781 Q341.9375,123.5781 341.25,124.6563 Q340.5625,125.7188 340.5625,127.8125 Q340.5625,129.9063 341.25,130.9844 Q341.9375,132.0469 343.2813,132.0469 Q343.9063,132.0469 344.5,131.7813 Q345.0938,131.5 345.7188,130.9219 L345.7188,133.6406 Z " fill="#000000"/><text fill="#000000" font-family="sans-serif" font-size="14" lengthAdjust="spacing" textLength="30" x="363.25" y="133.432">Rule</text><line style="stroke:#181818;stroke-width:0.5;" x1="279" x2="445" y1="144" y2="144"/><ellipse cx="289" cy="159.034" fill="none" rx="3" ry="3" style="stroke:#038048;stroke-width:1.0;"/><text fill="#000000" font-family="sans-serif" font-size="14" lengthAdjust="spacing" textLength="84" x="298" y="162.9659">number : int</text><ellipse cx="289" cy="178.1019" fill="none" rx="3" ry="3" style="stroke:#038048;stroke-width:1.0;"/><text fill="#000000" font-family="sans-serif" font-size="14" lengthAdjust="spacing" textLength="113" x="298" y="182.0339">goalNode : Node</text><ellipse cx="289" cy="197.1698" fill="none" rx="3" ry="3" style="stroke:#038048;stroke-width:1.0;"/><text fill="#000000" font-family="sans-serif" font-size="14" lengthAdjust="spacing" textLength="142" x="298" y="201.1018">nodeArr : List&lt;Node&gt;</text><line style="stroke:#181818;stroke-width:0.5;" x1="279" x2="445" y1="209.2038" y2="209.2038"/></g><!--class GraphDFS--><g id="elem_GraphDFS"><rect codeLine="14" fill="#F1F1F1" height="314.9508" id="GraphDFS" rx="2.5" ry="2.5" style="stroke:#181818;stroke-width:0.5;" width="210" x="7" y="7"/><ellipse cx="74.25" cy="23" fill="#ADD1B2" rx="11" ry="11" style="stroke:#181818;stroke-width:1.0;"/><path d="M77.2188,28.6406 Q76.6406,28.9375 76,29.0781 Q75.3594,29.2344 74.6563,29.2344 Q72.1563,29.2344 70.8281,27.5938 Q69.5156,25.9375 69.5156,22.8125 Q69.5156,19.6875 70.8281,18.0313 Q72.1563,16.375 74.6563,16.375 Q75.3594,16.375 76,16.5313 Q76.6563,16.6875 77.2188,16.9844 L77.2188,19.7031 Q76.5938,19.125 76,18.8594 Q75.4063,18.5781 74.7813,18.5781 Q73.4375,18.5781 72.75,19.6563 Q72.0625,20.7188 72.0625,22.8125 Q72.0625,24.9063 72.75,25.9844 Q73.4375,27.0469 74.7813,27.0469 Q75.4063,27.0469 76,26.7813 Q76.5938,26.5 77.2188,25.9219 L77.2188,28.6406 Z " fill="#000000"/><text fill="#000000" font-family="sans-serif" font-size="14" lengthAdjust="spacing" textLength="67" x="94.75" y="28.432">GraphDFS</text><line style="stroke:#181818;stroke-width:0.5;" x1="8" x2="216" y1="39" y2="39"/><ellipse cx="18" cy="54.034" fill="none" rx="3" ry="3" style="stroke:#038048;stroke-width:1.0;"/><text fill="#000000" font-family="sans-serif" font-size="14" lengthAdjust="spacing" textLength="115" x="27" y="57.9659">rules : List&lt;Rule&gt;</text><text fill="#000000" font-family="sans-serif" font-size="14" lengthAdjust="spacing" textLength="4" x="27" y="77.0339">&#160;</text><ellipse cx="18" cy="92.1698" fill="none" rx="3" ry="3" style="stroke:#038048;stroke-width:1.0;"/><text fill="#000000" font-family="sans-serif" font-size="14" lengthAdjust="spacing" textLength="164" x="27" y="96.1018">openNodes : List&lt;Node&gt;</text><ellipse cx="18" cy="111.2377" fill="none" rx="3" ry="3" style="stroke:#038048;stroke-width:1.0;"/><text fill="#000000" font-family="sans-serif" font-size="14" lengthAdjust="spacing" textLength="152" x="27" y="115.1697">openRules : List&lt;Rule&gt;</text><text fill="#000000" font-family="sans-serif" font-size="14" lengthAdjust="spacing" textLength="4" x="27" y="134.2376">&#160;</text><ellipse cx="18" cy="149.3735" fill="none" rx="3" ry="3" style="stroke:#038048;stroke-width:1.0;"/><text fill="#000000" font-family="sans-serif" font-size="14" lengthAdjust="spacing" textLength="164" x="27" y="153.3055">closeNodes : List&lt;Node&gt;</text><ellipse cx="18" cy="168.4415" fill="none" rx="3" ry="3" style="stroke:#038048;stroke-width:1.0;"/><text fill="#000000" font-family="sans-serif" font-size="14" lengthAdjust="spacing" textLength="152" x="27" y="172.3734">closeRules : List&lt;Rule&gt;</text><text fill="#000000" font-family="sans-serif" font-size="14" lengthAdjust="spacing" textLength="4" x="27" y="191.4414">&#160;</text><ellipse cx="18" cy="206.5773" fill="none" rx="3" ry="3" style="stroke:#038048;stroke-width:1.0;"/><text fill="#000000" font-family="sans-serif" font-size="14" lengthAdjust="spacing" textLength="184" x="27" y="210.5093">prohibitNodes : List&lt;Node&gt;</text><ellipse cx="18" cy="225.6452" fill="none" rx="3" ry="3" style="stroke:#038048;stroke-width:1.0;"/><text fill="#000000" font-family="sans-serif" font-size="14" lengthAdjust="spacing" textLength="172" x="27" y="229.5772">prohibitRules : List&lt;Rule&gt;</text><text fill="#000000" font-family="sans-serif" font-size="14" lengthAdjust="spacing" textLength="4" x="27" y="248.6451">&#160;</text><ellipse cx="18" cy="263.781" fill="none" rx="3" ry="3" style="stroke:#038048;stroke-width:1.0;"/><text fill="#000000" font-family="sans-serif" font-size="14" lengthAdjust="spacing" textLength="113" x="27" y="267.713">goalNode : Node</text><ellipse cx="18" cy="282.849" fill="none" rx="3" ry="3" style="stroke:#038048;stroke-width:1.0;"/><text fill="#000000" font-family="sans-serif" font-size="14" lengthAdjust="spacing" textLength="45" x="27" y="286.7809">FY : int</text><ellipse cx="18" cy="301.9169" fill="none" rx="3" ry="3" style="stroke:#038048;stroke-width:1.0;"/><text fill="#000000" font-family="sans-serif" font-size="14" lengthAdjust="spacing" textLength="48" x="27" y="305.8489">FN : int</text><line style="stroke:#181818;stroke-width:0.5;" x1="8" x2="216" y1="313.9508" y2="313.9508"/></g><!--link GraphDFS to Rule--><g id="link_GraphDFS_Rule"><path codeLine="31" d="M217.1,164.5 C237.38,164.5 258.39,164.5 277.88,164.5 " fill="none" id="GraphDFS-Rule" style="stroke:#181818;stroke-width:1.0;"/><text fill="#000000" font-family="sans-serif" font-size="13" lengthAdjust="spacing" textLength="7" x="225.0753" y="179.049">1</text><text fill="#000000" font-family="sans-serif" font-size="13" lengthAdjust="spacing" textLength="7" x="263.0763" y="179.1764">*</text></g><!--link Rule to Node--><g id="link_Rule_Node"><path codeLine="32" d="M446.05,164.5 C485.68,164.5 525.96,164.5 560.96,164.5 " fill="none" id="Rule-to-Node" style="stroke:#181818;stroke-width:1.0;"/><polygon fill="#181818" points="566.96,164.5,557.96,160.5,561.96,164.5,557.96,168.5,566.96,164.5" style="stroke:#181818;stroke-width:1.0;"/><text fill="#000000" font-family="sans-serif" font-size="13" lengthAdjust="spacing" textLength="59" x="477" y="160.397">goalNode</text><text fill="#000000" font-family="sans-serif" font-size="13" lengthAdjust="spacing" textLength="7" x="454.121" y="179.2038">1</text><text fill="#000000" font-family="sans-serif" font-size="13" lengthAdjust="spacing" textLength="7" x="552.0937" y="179.5821">1</text></g><!--link Rule to Node--><g id="link_Rule_Node"><path codeLine="33" d="M446.2,187.96 C474.97,193.27 507.4,196.14 537,191.5 C546.84,189.96 557.09,187.46 566.92,184.59 " fill="none" id="Rule-Node" style="stroke:#181818;stroke-width:1.0;"/><text fill="#000000" font-family="sans-serif" font-size="13" lengthAdjust="spacing" textLength="49" x="482" y="187.397">nodeArr</text><text fill="#000000" font-family="sans-serif" font-size="13" lengthAdjust="spacing" textLength="7" x="454.0108" y="204.7258">1</text><text fill="#000000" font-family="sans-serif" font-size="13" lengthAdjust="spacing" textLength="7" x="552.0483" y="202.3717">*</text></g><!--SRC=[VP6z2eCm58NtFCKbOuj3Lob2eTYbEDYfep-f1j94aZYLldlDDL4BQfQ4Uyxv0kSAzh9W5MZUj1PghbbbkPA4LA8m1Z9LC_WG6CvHzk-IQOY1Iqk-mP7tOjs1aqOL0XanehnjU5sqyzsviMSd93FmfekklQQF0DN31oPutMy9paTHTKowlFc7JLg-5ww4CcmhZU9klDEgvIMtMuIWxq9M2qgVomxJREvyAeUUA4GHq0F53H1SmpXCyFRGm5yQCELrlmlo0m00]--></g></svg>