<?xml version="1.0" encoding="us-ascii" standalone="no"?><svg xmlns="http://www.w3.org/2000/svg" xmlns:xlink="http://www.w3.org/1999/xlink" contentStyleType="text/css" height="157px" preserveAspectRatio="none" style="width:749px;height:157px;background:#FFFFFF;" version="1.1" viewBox="0 0 749 157" width="749px" zoomAndPan="magnify"><defs/><g><!--class Term--><g id="elem_Term"><rect codeLine="4" fill="#F1F1F1" height="143.3396" id="Term" rx="2.5" ry="2.5" style="stroke:#181818;stroke-width:0.5;" width="199" x="543" y="7"/><ellipse cx="620.75" cy="23" fill="#ADD1B2" rx="11" ry="11" style="stroke:#181818;stroke-width:1.0;"/><path d="M623.7188,28.6406 Q623.1406,28.9375 622.5,29.0781 Q621.8594,29.2344 621.1563,29.2344 Q618.6563,29.2344 617.3281,27.5938 Q616.0156,25.9375 616.0156,22.8125 Q616.0156,19.6875 617.3281,18.0313 Q618.6563,16.375 621.1563,16.375 Q621.8594,16.375 622.5,16.5313 Q623.1563,16.6875 623.7188,16.9844 L623.7188,19.7031 Q623.0938,19.125 622.5,18.8594 Q621.9063,18.5781 621.2813,18.5781 Q619.9375,18.5781 619.25,19.6563 Q618.5625,20.7188 618.5625,22.8125 Q618.5625,24.9063 619.25,25.9844 Q619.9375,27.0469 621.2813,27.0469 Q621.9063,27.0469 622.5,26.7813 Q623.0938,26.5 623.7188,25.9219 L623.7188,28.6406 Z " fill="#000000"/><text fill="#000000" font-family="sans-serif" font-size="14" lengthAdjust="spacing" textLength="35" x="641.25" y="28.432">Term</text><line style="stroke:#181818;stroke-width:0.5;" x1="544" x2="741" y1="39" y2="39"/><polygon fill="none" points="554,49.034,558,53.034,554,57.034,550,53.034" style="stroke:#B38D22;stroke-width:1.0;"/><text fill="#000000" font-family="sans-serif" font-size="14" lengthAdjust="spacing" textLength="64" x="563" y="57.9659">name: str</text><polygon fill="none" points="554,68.1019,558,72.1019,554,76.1019,550,72.1019" style="stroke:#B38D22;stroke-width:1.0;"/><text fill="#000000" font-family="sans-serif" font-size="14" lengthAdjust="spacing" textLength="126" x="563" y="77.0339">type: "var"|"const"</text><polygon fill="none" points="554,87.1698,558,91.1698,554,95.1698,550,91.1698" style="stroke:#B38D22;stroke-width:1.0;"/><text fill="#000000" font-family="sans-serif" font-size="14" lengthAdjust="spacing" textLength="69" x="563" y="96.1018">value: Any</text><line style="stroke:#181818;stroke-width:0.5;" x1="544" x2="741" y1="104.2038" y2="104.2038"/><ellipse cx="554" cy="119.2377" fill="#84BE84" rx="3" ry="3" style="stroke:#038048;stroke-width:1.0;"/><text fill="#000000" font-family="sans-serif" font-size="14" lengthAdjust="spacing" textLength="173" x="563" y="123.1697">__init__(name, type, value)</text><ellipse cx="554" cy="138.3056" fill="#84BE84" rx="3" ry="3" style="stroke:#038048;stroke-width:1.0;"/><text fill="#000000" font-family="sans-serif" font-size="14" lengthAdjust="spacing" textLength="39" x="563" y="142.2376">copy()</text></g><!--class Atom--><g id="elem_Atom"><rect codeLine="12" fill="#F1F1F1" height="143.3396" id="Atom" rx="2.5" ry="2.5" style="stroke:#181818;stroke-width:0.5;" width="226" x="229" y="7"/><ellipse cx="320.25" cy="23" fill="#ADD1B2" rx="11" ry="11" style="stroke:#181818;stroke-width:1.0;"/><path d="M323.2188,28.6406 Q322.6406,28.9375 322,29.0781 Q321.3594,29.2344 320.6563,29.2344 Q318.1563,29.2344 316.8281,27.5938 Q315.5156,25.9375 315.5156,22.8125 Q315.5156,19.6875 316.8281,18.0313 Q318.1563,16.375 320.6563,16.375 Q321.3594,16.375 322,16.5313 Q322.6563,16.6875 323.2188,16.9844 L323.2188,19.7031 Q322.5938,19.125 322,18.8594 Q321.4063,18.5781 320.7813,18.5781 Q319.4375,18.5781 318.75,19.6563 Q318.0625,20.7188 318.0625,22.8125 Q318.0625,24.9063 318.75,25.9844 Q319.4375,27.0469 320.7813,27.0469 Q321.4063,27.0469 322,26.7813 Q322.5938,26.5 323.2188,25.9219 L323.2188,28.6406 Z " fill="#000000"/><text fill="#000000" font-family="sans-serif" font-size="14" lengthAdjust="spacing" textLength="35" x="340.75" y="28.432">Atom</text><line style="stroke:#181818;stroke-width:0.5;" x1="230" x2="454" y1="39" y2="39"/><polygon fill="none" points="240,49.034,244,53.034,240,57.034,236,53.034" style="stroke:#B38D22;stroke-width:1.0;"/><text fill="#000000" font-family="sans-serif" font-size="14" lengthAdjust="spacing" textLength="64" x="249" y="57.9659">name: str</text><polygon fill="none" points="240,68.1019,244,72.1019,240,76.1019,236,72.1019" style="stroke:#B38D22;stroke-width:1.0;"/><text fill="#000000" font-family="sans-serif" font-size="14" lengthAdjust="spacing" textLength="106" x="249" y="77.0339">args: List[Term]</text><polygon fill="none" points="240,87.1698,244,91.1698,240,95.1698,236,91.1698" style="stroke:#B38D22;stroke-width:1.0;"/><text fill="#000000" font-family="sans-serif" font-size="14" lengthAdjust="spacing" textLength="99" x="249" y="96.1018">isPositive: bool</text><line style="stroke:#181818;stroke-width:0.5;" x1="230" x2="454" y1="104.2038" y2="104.2038"/><ellipse cx="240" cy="119.2377" fill="#84BE84" rx="3" ry="3" style="stroke:#038048;stroke-width:1.0;"/><text fill="#000000" font-family="sans-serif" font-size="14" lengthAdjust="spacing" textLength="200" x="249" y="123.1697">__init__(name, args, isPositive)</text><ellipse cx="240" cy="138.3056" fill="#84BE84" rx="3" ry="3" style="stroke:#038048;stroke-width:1.0;"/><text fill="#000000" font-family="sans-serif" font-size="14" lengthAdjust="spacing" textLength="39" x="249" y="142.2376">copy()</text></g><!--class Disjunct--><g id="elem_Disjunct"><rect codeLine="20" fill="#F1F1F1" height="105.2038" id="Disjunct" rx="2.5" ry="2.5" style="stroke:#181818;stroke-width:0.5;" width="132" x="9" y="26"/><ellipse cx="44.25" cy="42" fill="#ADD1B2" rx="11" ry="11" style="stroke:#181818;stroke-width:1.0;"/><path d="M47.2188,47.6406 Q46.6406,47.9375 46,48.0781 Q45.3594,48.2344 44.6563,48.2344 Q42.1563,48.2344 40.8281,46.5938 Q39.5156,44.9375 39.5156,41.8125 Q39.5156,38.6875 40.8281,37.0313 Q42.1563,35.375 44.6563,35.375 Q45.3594,35.375 46,35.5313 Q46.6563,35.6875 47.2188,35.9844 L47.2188,38.7031 Q46.5938,38.125 46,37.8594 Q45.4063,37.5781 44.7813,37.5781 Q43.4375,37.5781 42.75,38.6563 Q42.0625,39.7188 42.0625,41.8125 Q42.0625,43.9063 42.75,44.9844 Q43.4375,46.0469 44.7813,46.0469 Q45.4063,46.0469 46,45.7813 Q46.5938,45.5 47.2188,44.9219 L47.2188,47.6406 Z " fill="#000000"/><text fill="#000000" font-family="sans-serif" font-size="14" lengthAdjust="spacing" textLength="55" x="62.75" y="47.432">Disjunct</text><line style="stroke:#181818;stroke-width:0.5;" x1="10" x2="140" y1="58" y2="58"/><polygon fill="none" points="20,68.034,24,72.034,20,76.034,16,72.034" style="stroke:#B38D22;stroke-width:1.0;"/><text fill="#000000" font-family="sans-serif" font-size="14" lengthAdjust="spacing" textLength="106" x="29" y="76.9659">args: List[Atom]</text><line style="stroke:#181818;stroke-width:0.5;" x1="10" x2="140" y1="85.0679" y2="85.0679"/><ellipse cx="20" cy="100.1019" fill="#84BE84" rx="3" ry="3" style="stroke:#038048;stroke-width:1.0;"/><text fill="#000000" font-family="sans-serif" font-size="14" lengthAdjust="spacing" textLength="84" x="29" y="104.0339">__init__(args)</text><ellipse cx="20" cy="119.1698" fill="#84BE84" rx="3" ry="3" style="stroke:#038048;stroke-width:1.0;"/><text fill="#000000" font-family="sans-serif" font-size="14" lengthAdjust="spacing" textLength="39" x="29" y="123.1018">copy()</text></g><!--link Atom to Term--><g id="link_Atom_Term"><path codeLine="26" d="M455.42,78.5 C484.18,78.5 514.88,78.5 542.89,78.5 " fill="none" id="Atom-Term" style="stroke:#181818;stroke-width:1.0;"/><text fill="#000000" font-family="sans-serif" font-size="13" lengthAdjust="spacing" textLength="26" x="486" y="74.397">args</text><text fill="#000000" font-family="sans-serif" font-size="13" lengthAdjust="spacing" textLength="7" x="462.9102" y="92.9533">1</text><text fill="#000000" font-family="sans-serif" font-size="13" lengthAdjust="spacing" textLength="7" x="527.9956" y="93.0618">*</text></g><!--link Disjunct to Atom--><g id="link_Disjunct_Atom"><path codeLine="27" d="M141.17,78.5 C167.6,78.5 198.91,78.5 228.8,78.5 " fill="none" id="Disjunct-Atom" style="stroke:#181818;stroke-width:1.0;"/><text fill="#000000" font-family="sans-serif" font-size="13" lengthAdjust="spacing" textLength="26" x="172" y="74.397">args</text><text fill="#000000" font-family="sans-serif" font-size="13" lengthAdjust="spacing" textLength="7" x="148.7902" y="93.3542">1</text><text fill="#000000" font-family="sans-serif" font-size="13" lengthAdjust="spacing" textLength="7" x="213.9592" y="92.9804">*</text></g><!--SRC=[TP0n3u8m48Nt_efBNKHnS6KpSNHmS3E6r8fw1bhIEqY8-j-b1GrHwNRtthtlhdbsPc0B3YzNXXEwJ3DQ8uJE5H7iCbV0NK3x9c1KaIL0xFgQcxAjPQsSV4Xj3R7ibLhbLIkjJ1CQypH5WvocKnyHXy6uCqMTGTkocKRY-UQks8vpbRjG0Xiatllz3dqRQMi96UlMVBGs_ulsi_70Ei9V8zqge_cpmu3fTpjyXNlv9oeS8PSI5WkGCzbzPXAYn0Smq8E_rry0]--></g></svg>