<?xml version="1.0" encoding="UTF-8" standalone="no"?>
<!DOCTYPE svg PUBLIC "-//W3C//DTD SVG 1.1//EN" "http://www.w3.org/Graphics/SVG/1.1/DTD/svg11.dtd">
<!-- Generated by graphviz version 2.40.1 (20161225.0304)
 -->
<!-- Title: AND_OR_Graph Pages: 1 -->
<svg width="619pt" height="764pt" viewBox="0.00 0.00 619.00 764.00" xmlns="http://www.w3.org/2000/svg" xmlns:xlink="http://www.w3.org/1999/xlink">
<g id="graph0" class="graph" transform="scale(1 1) rotate(0) translate(4 760)">
<title>AND_OR_Graph</title>
<polygon fill="#ffffff" stroke="transparent" points="-4,4 -4,-760 615,-760 615,4 -4,4"/>
<!-- 101 -->
<g id="node1" class="node">
<title>101</title>
<polygon fill="none" stroke="#000000" points="126,-396 72,-396 72,-360 126,-360 126,-396"/>
<text text-anchor="middle" x="99" y="-373.8" font-family="Times,serif" font-size="14.00" fill="#000000">101</text>
</g>
<!-- 3 -->
<g id="node2" class="node">
<title>3</title>
<ellipse fill="none" stroke="#000000" cx="226" cy="-306" rx="27" ry="18"/>
<text text-anchor="middle" x="226" y="-301.8" font-family="Times,serif" font-size="14.00" fill="#000000">3</text>
</g>
<!-- 101&#45;&gt;3 -->
<g id="edge1" class="edge">
<title>101-&gt;3</title>
<path fill="none" stroke="#000000" d="M126.2447,-362.5542C146.8152,-350.8922 175.0192,-334.9025 196.1904,-322.8999"/>
<polygon fill="#000000" stroke="#000000" points="198.1066,-325.837 205.0797,-317.8603 194.6543,-319.7475 198.1066,-325.837"/>
</g>
<!-- 102 -->
<g id="node5" class="node">
<title>102</title>
<polygon fill="none" stroke="#000000" points="207,-252 153,-252 153,-216 207,-216 207,-252"/>
<text text-anchor="middle" x="180" y="-229.8" font-family="Times,serif" font-size="14.00" fill="#000000">102</text>
</g>
<!-- 3&#45;&gt;102 -->
<g id="edge6" class="edge">
<title>3-&gt;102</title>
<path fill="none" stroke="#000000" d="M215.3311,-289.3008C209.8852,-280.7769 203.1299,-270.2034 196.9893,-260.592"/>
<polygon fill="#000000" stroke="#000000" points="199.9114,-258.6648 191.578,-252.1222 194.0125,-262.4335 199.9114,-258.6648"/>
</g>
<!-- 1 -->
<g id="node3" class="node">
<title>1</title>
<ellipse fill="none" stroke="#000000" cx="99" cy="-450" rx="27" ry="18"/>
<text text-anchor="middle" x="99" y="-445.8" font-family="Times,serif" font-size="14.00" fill="#000000">1</text>
</g>
<!-- 1&#45;&gt;101 -->
<g id="edge2" class="edge">
<title>1-&gt;101</title>
<path fill="none" stroke="#000000" d="M99,-431.8314C99,-424.131 99,-414.9743 99,-406.4166"/>
<polygon fill="#000000" stroke="#000000" points="102.5001,-406.4132 99,-396.4133 95.5001,-406.4133 102.5001,-406.4132"/>
</g>
<!-- 2 -->
<g id="node4" class="node">
<title>2</title>
<ellipse fill="none" stroke="#000000" cx="27" cy="-450" rx="27" ry="18"/>
<text text-anchor="middle" x="27" y="-445.8" font-family="Times,serif" font-size="14.00" fill="#000000">2</text>
</g>
<!-- 2&#45;&gt;101 -->
<g id="edge3" class="edge">
<title>2-&gt;101</title>
<path fill="none" stroke="#000000" d="M42.2693,-434.7307C51.3708,-425.6292 63.1539,-413.8461 73.6212,-403.3788"/>
<polygon fill="#000000" stroke="#000000" points="76.3571,-405.5927 80.9533,-396.0467 71.4073,-400.6429 76.3571,-405.5927"/>
</g>
<!-- 2&#45;&gt;102 -->
<g id="edge5" class="edge">
<title>2-&gt;102</title>
<path fill="none" stroke="#000000" d="M31.9915,-432.1728C37.7437,-413.3257 48.3261,-383.1758 63,-360 87.7468,-320.9151 125.4068,-282.978 151.2778,-259.1215"/>
<polygon fill="#000000" stroke="#000000" points="153.8607,-261.5034 158.9009,-252.1842 149.1493,-256.3262 153.8607,-261.5034"/>
</g>
<!-- 7 -->
<g id="node6" class="node">
<title>7</title>
<ellipse fill="none" stroke="#000000" cx="197" cy="-162" rx="27" ry="18"/>
<text text-anchor="middle" x="197" y="-157.8" font-family="Times,serif" font-size="14.00" fill="#000000">7</text>
</g>
<!-- 102&#45;&gt;7 -->
<g id="edge4" class="edge">
<title>102-&gt;7</title>
<path fill="none" stroke="#000000" d="M184.2898,-215.8314C186.1562,-207.9266 188.385,-198.4872 190.4511,-189.7365"/>
<polygon fill="#000000" stroke="#000000" points="193.8788,-190.4501 192.7704,-179.9134 187.0661,-188.8415 193.8788,-190.4501"/>
</g>
<!-- 105 -->
<g id="node14" class="node">
<title>105</title>
<polygon fill="none" stroke="#000000" points="315,-108 261,-108 261,-72 315,-72 315,-108"/>
<text text-anchor="middle" x="288" y="-85.8" font-family="Times,serif" font-size="14.00" fill="#000000">105</text>
</g>
<!-- 7&#45;&gt;105 -->
<g id="edge15" class="edge">
<title>7-&gt;105</title>
<path fill="none" stroke="#000000" d="M214.5457,-148.1177C226.5481,-138.6213 242.7877,-125.7724 256.9453,-114.5707"/>
<polygon fill="#000000" stroke="#000000" points="259.3222,-117.1532 264.9928,-108.2035 254.9788,-111.6636 259.3222,-117.1532"/>
</g>
<!-- 4 -->
<g id="node7" class="node">
<title>4</title>
<ellipse fill="none" stroke="#000000" cx="171" cy="-450" rx="27" ry="18"/>
<text text-anchor="middle" x="171" y="-445.8" font-family="Times,serif" font-size="14.00" fill="#000000">4</text>
</g>
<!-- 4&#45;&gt;102 -->
<g id="edge7" class="edge">
<title>4-&gt;102</title>
<path fill="none" stroke="#000000" d="M171.7519,-431.9555C173.3169,-394.3938 176.9352,-307.5541 178.8162,-262.4103"/>
<polygon fill="#000000" stroke="#000000" points="182.3245,-262.2821 179.244,-252.1451 175.3306,-261.9907 182.3245,-262.2821"/>
</g>
<!-- 106 -->
<g id="node17" class="node">
<title>106</title>
<polygon fill="none" stroke="#000000" points="270,-396 216,-396 216,-360 270,-360 270,-396"/>
<text text-anchor="middle" x="243" y="-373.8" font-family="Times,serif" font-size="14.00" fill="#000000">106</text>
</g>
<!-- 4&#45;&gt;106 -->
<g id="edge18" class="edge">
<title>4-&gt;106</title>
<path fill="none" stroke="#000000" d="M186.2693,-434.7307C195.3708,-425.6292 207.1539,-413.8461 217.6212,-403.3788"/>
<polygon fill="#000000" stroke="#000000" points="220.3571,-405.5927 224.9533,-396.0467 215.4073,-400.6429 220.3571,-405.5927"/>
</g>
<!-- 103 -->
<g id="node8" class="node">
<title>103</title>
<polygon fill="none" stroke="#000000" points="198,-540 144,-540 144,-504 198,-504 198,-540"/>
<text text-anchor="middle" x="171" y="-517.8" font-family="Times,serif" font-size="14.00" fill="#000000">103</text>
</g>
<!-- 103&#45;&gt;4 -->
<g id="edge8" class="edge">
<title>103-&gt;4</title>
<path fill="none" stroke="#000000" d="M171,-503.8314C171,-496.131 171,-486.9743 171,-478.4166"/>
<polygon fill="#000000" stroke="#000000" points="174.5001,-478.4132 171,-468.4133 167.5001,-478.4133 174.5001,-478.4132"/>
</g>
<!-- 5 -->
<g id="node9" class="node">
<title>5</title>
<ellipse fill="none" stroke="#000000" cx="135" cy="-594" rx="27" ry="18"/>
<text text-anchor="middle" x="135" y="-589.8" font-family="Times,serif" font-size="14.00" fill="#000000">5</text>
</g>
<!-- 5&#45;&gt;103 -->
<g id="edge9" class="edge">
<title>5-&gt;103</title>
<path fill="none" stroke="#000000" d="M143.7146,-576.5708C147.8228,-568.3544 152.8196,-558.3608 157.4089,-549.1821"/>
<polygon fill="#000000" stroke="#000000" points="160.648,-550.5301 161.9897,-540.0206 154.387,-547.3996 160.648,-550.5301"/>
</g>
<!-- 6 -->
<g id="node10" class="node">
<title>6</title>
<ellipse fill="none" stroke="#000000" cx="207" cy="-594" rx="27" ry="18"/>
<text text-anchor="middle" x="207" y="-589.8" font-family="Times,serif" font-size="14.00" fill="#000000">6</text>
</g>
<!-- 6&#45;&gt;103 -->
<g id="edge10" class="edge">
<title>6-&gt;103</title>
<path fill="none" stroke="#000000" d="M198.2854,-576.5708C194.1772,-568.3544 189.1804,-558.3608 184.5911,-549.1821"/>
<polygon fill="#000000" stroke="#000000" points="187.613,-547.3996 180.0103,-540.0206 181.352,-550.5301 187.613,-547.3996"/>
</g>
<!-- 104 -->
<g id="node11" class="node">
<title>104</title>
<polygon fill="none" stroke="#000000" points="414,-396 360,-396 360,-360 414,-360 414,-396"/>
<text text-anchor="middle" x="387" y="-373.8" font-family="Times,serif" font-size="14.00" fill="#000000">104</text>
</g>
<!-- 104&#45;&gt;3 -->
<g id="edge11" class="edge">
<title>104-&gt;3</title>
<path fill="none" stroke="#000000" d="M359.952,-364.2734C356.9432,-362.8069 353.914,-361.3566 351,-360 319.9718,-345.5546 284.0586,-330.1766 258.7102,-319.5412"/>
<polygon fill="#000000" stroke="#000000" points="259.7865,-316.1977 249.2103,-315.5699 257.0866,-322.6561 259.7865,-316.1977"/>
</g>
<!-- 8 -->
<g id="node12" class="node">
<title>8</title>
<ellipse fill="none" stroke="#000000" cx="387" cy="-450" rx="27" ry="18"/>
<text text-anchor="middle" x="387" y="-445.8" font-family="Times,serif" font-size="14.00" fill="#000000">8</text>
</g>
<!-- 8&#45;&gt;104 -->
<g id="edge12" class="edge">
<title>8-&gt;104</title>
<path fill="none" stroke="#000000" d="M387,-431.8314C387,-424.131 387,-414.9743 387,-406.4166"/>
<polygon fill="#000000" stroke="#000000" points="390.5001,-406.4132 387,-396.4133 383.5001,-406.4133 390.5001,-406.4132"/>
</g>
<!-- 111 -->
<g id="node32" class="node">
<title>111</title>
<polygon fill="none" stroke="#000000" points="342,-396 288,-396 288,-360 342,-360 342,-396"/>
<text text-anchor="middle" x="315" y="-373.8" font-family="Times,serif" font-size="14.00" fill="#000000">111</text>
</g>
<!-- 8&#45;&gt;111 -->
<g id="edge36" class="edge">
<title>8-&gt;111</title>
<path fill="none" stroke="#000000" d="M371.7307,-434.7307C362.6292,-425.6292 350.8461,-413.8461 340.3788,-403.3788"/>
<polygon fill="#000000" stroke="#000000" points="342.5927,-400.6429 333.0467,-396.0467 337.6429,-405.5927 342.5927,-400.6429"/>
</g>
<!-- 112 -->
<g id="node33" class="node">
<title>112</title>
<polygon fill="none" stroke="#000000" points="486,-396 432,-396 432,-360 486,-360 486,-396"/>
<text text-anchor="middle" x="459" y="-373.8" font-family="Times,serif" font-size="14.00" fill="#000000">112</text>
</g>
<!-- 8&#45;&gt;112 -->
<g id="edge38" class="edge">
<title>8-&gt;112</title>
<path fill="none" stroke="#000000" d="M402.2693,-434.7307C411.3708,-425.6292 423.1539,-413.8461 433.6212,-403.3788"/>
<polygon fill="#000000" stroke="#000000" points="436.3571,-405.5927 440.9533,-396.0467 431.4073,-400.6429 436.3571,-405.5927"/>
</g>
<!-- 31 -->
<g id="node13" class="node">
<title>31</title>
<ellipse fill="none" stroke="#000000" cx="459" cy="-450" rx="27" ry="18"/>
<text text-anchor="middle" x="459" y="-445.8" font-family="Times,serif" font-size="14.00" fill="#000000">31</text>
</g>
<!-- 31&#45;&gt;104 -->
<g id="edge13" class="edge">
<title>31-&gt;104</title>
<path fill="none" stroke="#000000" d="M443.7307,-434.7307C434.6292,-425.6292 422.8461,-413.8461 412.3788,-403.3788"/>
<polygon fill="#000000" stroke="#000000" points="414.5927,-400.6429 405.0467,-396.0467 409.6429,-405.5927 414.5927,-400.6429"/>
</g>
<!-- 14 -->
<g id="node15" class="node">
<title>14</title>
<ellipse fill="none" stroke="#000000" cx="315" cy="-18" rx="27" ry="18"/>
<text text-anchor="middle" x="315" y="-13.8" font-family="Times,serif" font-size="14.00" fill="#000000">14</text>
</g>
<!-- 105&#45;&gt;14 -->
<g id="edge14" class="edge">
<title>105-&gt;14</title>
<path fill="none" stroke="#000000" d="M294.8132,-71.8314C297.8098,-63.8406 301.3943,-54.2819 304.7057,-45.4514"/>
<polygon fill="#000000" stroke="#000000" points="308.0483,-46.5057 308.2825,-35.9134 301.494,-44.0478 308.0483,-46.5057"/>
</g>
<!-- 9 -->
<g id="node16" class="node">
<title>9</title>
<ellipse fill="none" stroke="#000000" cx="306" cy="-306" rx="27" ry="18"/>
<text text-anchor="middle" x="306" y="-301.8" font-family="Times,serif" font-size="14.00" fill="#000000">9</text>
</g>
<!-- 9&#45;&gt;105 -->
<g id="edge16" class="edge">
<title>9-&gt;105</title>
<path fill="none" stroke="#000000" d="M304.4963,-287.9555C301.3595,-250.3144 294.0989,-163.1867 290.3437,-118.1246"/>
<polygon fill="#000000" stroke="#000000" points="293.8305,-117.8198 289.5121,-108.1451 286.8547,-118.4012 293.8305,-117.8198"/>
</g>
<!-- 110 -->
<g id="node31" class="node">
<title>110</title>
<polygon fill="none" stroke="#000000" points="370,-252 316,-252 316,-216 370,-216 370,-252"/>
<text text-anchor="middle" x="343" y="-229.8" font-family="Times,serif" font-size="14.00" fill="#000000">110</text>
</g>
<!-- 9&#45;&gt;110 -->
<g id="edge32" class="edge">
<title>9-&gt;110</title>
<path fill="none" stroke="#000000" d="M314.7685,-288.937C319.0318,-280.6409 324.259,-270.469 329.0516,-261.1428"/>
<polygon fill="#000000" stroke="#000000" points="332.1899,-262.6932 333.6477,-252.1992 325.9639,-259.4937 332.1899,-262.6932"/>
</g>
<!-- 106&#45;&gt;9 -->
<g id="edge17" class="edge">
<title>106-&gt;9</title>
<path fill="none" stroke="#000000" d="M258.8976,-359.8314C266.9511,-350.6273 276.825,-339.3429 285.4486,-329.4873"/>
<polygon fill="#000000" stroke="#000000" points="288.0868,-331.7874 292.0378,-321.9568 282.8187,-327.1778 288.0868,-331.7874"/>
</g>
<!-- 18 -->
<g id="node18" class="node">
<title>18</title>
<ellipse fill="none" stroke="#000000" cx="243" cy="-450" rx="27" ry="18"/>
<text text-anchor="middle" x="243" y="-445.8" font-family="Times,serif" font-size="14.00" fill="#000000">18</text>
</g>
<!-- 18&#45;&gt;106 -->
<g id="edge19" class="edge">
<title>18-&gt;106</title>
<path fill="none" stroke="#000000" d="M243,-431.8314C243,-424.131 243,-414.9743 243,-406.4166"/>
<polygon fill="#000000" stroke="#000000" points="246.5001,-406.4132 243,-396.4133 239.5001,-406.4133 246.5001,-406.4132"/>
</g>
<!-- 11 -->
<g id="node19" class="node">
<title>11</title>
<ellipse fill="none" stroke="#000000" cx="315" cy="-450" rx="27" ry="18"/>
<text text-anchor="middle" x="315" y="-445.8" font-family="Times,serif" font-size="14.00" fill="#000000">11</text>
</g>
<!-- 11&#45;&gt;106 -->
<g id="edge20" class="edge">
<title>11-&gt;106</title>
<path fill="none" stroke="#000000" d="M299.7307,-434.7307C290.6292,-425.6292 278.8461,-413.8461 268.3788,-403.3788"/>
<polygon fill="#000000" stroke="#000000" points="270.5927,-400.6429 261.0467,-396.0467 265.6429,-405.5927 270.5927,-400.6429"/>
</g>
<!-- 11&#45;&gt;111 -->
<g id="edge35" class="edge">
<title>11-&gt;111</title>
<path fill="none" stroke="#000000" d="M315,-431.8314C315,-424.131 315,-414.9743 315,-406.4166"/>
<polygon fill="#000000" stroke="#000000" points="318.5001,-406.4132 315,-396.4133 311.5001,-406.4133 318.5001,-406.4132"/>
</g>
<!-- 107 -->
<g id="node20" class="node">
<title>107</title>
<polygon fill="none" stroke="#000000" points="349,-540 295,-540 295,-504 349,-504 349,-540"/>
<text text-anchor="middle" x="322" y="-517.8" font-family="Times,serif" font-size="14.00" fill="#000000">107</text>
</g>
<!-- 107&#45;&gt;11 -->
<g id="edge21" class="edge">
<title>107-&gt;11</title>
<path fill="none" stroke="#000000" d="M320.2336,-503.8314C319.485,-496.131 318.5947,-486.9743 317.7627,-478.4166"/>
<polygon fill="#000000" stroke="#000000" points="321.2415,-478.0276 316.7902,-468.4133 314.2744,-478.7051 321.2415,-478.0276"/>
</g>
<!-- 12 -->
<g id="node21" class="node">
<title>12</title>
<ellipse fill="none" stroke="#000000" cx="325" cy="-594" rx="27" ry="18"/>
<text text-anchor="middle" x="325" y="-589.8" font-family="Times,serif" font-size="14.00" fill="#000000">12</text>
</g>
<!-- 12&#45;&gt;107 -->
<g id="edge22" class="edge">
<title>12-&gt;107</title>
<path fill="none" stroke="#000000" d="M324.243,-575.8314C323.9221,-568.131 323.5406,-558.9743 323.184,-550.4166"/>
<polygon fill="#000000" stroke="#000000" points="326.6806,-550.2589 322.7672,-540.4133 319.6867,-550.5503 326.6806,-550.2589"/>
</g>
<!-- 113 -->
<g id="node34" class="node">
<title>113</title>
<polygon fill="none" stroke="#000000" points="421,-540 367,-540 367,-504 421,-504 421,-540"/>
<text text-anchor="middle" x="394" y="-517.8" font-family="Times,serif" font-size="14.00" fill="#000000">113</text>
</g>
<!-- 12&#45;&gt;113 -->
<g id="edge41" class="edge">
<title>12-&gt;113</title>
<path fill="none" stroke="#000000" d="M339.6331,-578.7307C348.3553,-569.6292 359.6475,-557.8461 369.6786,-547.3788"/>
<polygon fill="#000000" stroke="#000000" points="372.3131,-549.6883 376.7053,-540.0467 367.2592,-544.8449 372.3131,-549.6883"/>
</g>
<!-- 13 -->
<g id="node22" class="node">
<title>13</title>
<ellipse fill="none" stroke="#000000" cx="399" cy="-594" rx="27" ry="18"/>
<text text-anchor="middle" x="399" y="-589.8" font-family="Times,serif" font-size="14.00" fill="#000000">13</text>
</g>
<!-- 13&#45;&gt;107 -->
<g id="edge23" class="edge">
<title>13-&gt;107</title>
<path fill="none" stroke="#000000" d="M383.0456,-579.0816C373.2388,-569.9116 360.4188,-557.9241 349.0601,-547.3029"/>
<polygon fill="#000000" stroke="#000000" points="351.1795,-544.493 341.4848,-540.2195 346.3985,-549.606 351.1795,-544.493"/>
</g>
<!-- 109 -->
<g id="node27" class="node">
<title>109</title>
<polygon fill="none" stroke="#000000" points="533,-540 479,-540 479,-504 533,-504 533,-540"/>
<text text-anchor="middle" x="506" y="-517.8" font-family="Times,serif" font-size="14.00" fill="#000000">109</text>
</g>
<!-- 13&#45;&gt;109 -->
<g id="edge28" class="edge">
<title>13-&gt;109</title>
<path fill="none" stroke="#000000" d="M418.1295,-581.1278C432.6971,-571.3253 453.1606,-557.5555 470.6749,-545.7701"/>
<polygon fill="#000000" stroke="#000000" points="472.6546,-548.6567 478.9972,-540.1701 468.7467,-542.8491 472.6546,-548.6567"/>
</g>
<!-- 108 -->
<g id="node23" class="node">
<title>108</title>
<polygon fill="none" stroke="#000000" points="522,-252 468,-252 468,-216 522,-216 522,-252"/>
<text text-anchor="middle" x="495" y="-229.8" font-family="Times,serif" font-size="14.00" fill="#000000">108</text>
</g>
<!-- 33 -->
<g id="node24" class="node">
<title>33</title>
<ellipse fill="none" stroke="#000000" cx="495" cy="-162" rx="27" ry="18"/>
<text text-anchor="middle" x="495" y="-157.8" font-family="Times,serif" font-size="14.00" fill="#000000">33</text>
</g>
<!-- 108&#45;&gt;33 -->
<g id="edge24" class="edge">
<title>108-&gt;33</title>
<path fill="none" stroke="#000000" d="M495,-215.8314C495,-208.131 495,-198.9743 495,-190.4166"/>
<polygon fill="#000000" stroke="#000000" points="498.5001,-190.4132 495,-180.4133 491.5001,-190.4133 498.5001,-190.4132"/>
</g>
<!-- 21 -->
<g id="node25" class="node">
<title>21</title>
<ellipse fill="none" stroke="#000000" cx="459" cy="-306" rx="27" ry="18"/>
<text text-anchor="middle" x="459" y="-301.8" font-family="Times,serif" font-size="14.00" fill="#000000">21</text>
</g>
<!-- 21&#45;&gt;108 -->
<g id="edge25" class="edge">
<title>21-&gt;108</title>
<path fill="none" stroke="#000000" d="M467.7146,-288.5708C471.8228,-280.3544 476.8196,-270.3608 481.4089,-261.1821"/>
<polygon fill="#000000" stroke="#000000" points="484.648,-262.5301 485.9897,-252.0206 478.387,-259.3996 484.648,-262.5301"/>
</g>
<!-- 21&#45;&gt;110 -->
<g id="edge33" class="edge">
<title>21-&gt;110</title>
<path fill="none" stroke="#000000" d="M439.0589,-293.6228C422.4693,-283.3257 398.4421,-268.4123 378.5685,-256.077"/>
<polygon fill="#000000" stroke="#000000" points="380.3984,-253.0934 370.0562,-250.7935 376.7068,-259.0409 380.3984,-253.0934"/>
</g>
<!-- 15 -->
<g id="node26" class="node">
<title>15</title>
<ellipse fill="none" stroke="#000000" cx="531" cy="-306" rx="27" ry="18"/>
<text text-anchor="middle" x="531" y="-301.8" font-family="Times,serif" font-size="14.00" fill="#000000">15</text>
</g>
<!-- 15&#45;&gt;108 -->
<g id="edge26" class="edge">
<title>15-&gt;108</title>
<path fill="none" stroke="#000000" d="M522.2854,-288.5708C518.1772,-280.3544 513.1804,-270.3608 508.5911,-261.1821"/>
<polygon fill="#000000" stroke="#000000" points="511.613,-259.3996 504.0103,-252.0206 505.352,-262.5301 511.613,-259.3996"/>
</g>
<!-- 19 -->
<g id="node28" class="node">
<title>19</title>
<ellipse fill="none" stroke="#000000" cx="531" cy="-450" rx="27" ry="18"/>
<text text-anchor="middle" x="531" y="-445.8" font-family="Times,serif" font-size="14.00" fill="#000000">19</text>
</g>
<!-- 109&#45;&gt;19 -->
<g id="edge27" class="edge">
<title>109-&gt;19</title>
<path fill="none" stroke="#000000" d="M512.3086,-503.8314C515.0831,-495.8406 518.4021,-486.2819 521.4683,-477.4514"/>
<polygon fill="#000000" stroke="#000000" points="524.8062,-478.5082 524.7801,-467.9134 518.1935,-476.2121 524.8062,-478.5082"/>
</g>
<!-- 19&#45;&gt;112 -->
<g id="edge39" class="edge">
<title>19-&gt;112</title>
<path fill="none" stroke="#000000" d="M515.7307,-434.7307C506.6292,-425.6292 494.8461,-413.8461 484.3788,-403.3788"/>
<polygon fill="#000000" stroke="#000000" points="486.5927,-400.6429 477.0467,-396.0467 481.6429,-405.5927 486.5927,-400.6429"/>
</g>
<!-- 115 -->
<g id="node38" class="node">
<title>115</title>
<polygon fill="none" stroke="#000000" points="558,-396 504,-396 504,-360 558,-360 558,-396"/>
<text text-anchor="middle" x="531" y="-373.8" font-family="Times,serif" font-size="14.00" fill="#000000">115</text>
</g>
<!-- 19&#45;&gt;115 -->
<g id="edge47" class="edge">
<title>19-&gt;115</title>
<path fill="none" stroke="#000000" d="M531,-431.8314C531,-424.131 531,-414.9743 531,-406.4166"/>
<polygon fill="#000000" stroke="#000000" points="534.5001,-406.4132 531,-396.4133 527.5001,-406.4133 534.5001,-406.4132"/>
</g>
<!-- 20 -->
<g id="node29" class="node">
<title>20</title>
<ellipse fill="none" stroke="#000000" cx="498" cy="-594" rx="27" ry="18"/>
<text text-anchor="middle" x="498" y="-589.8" font-family="Times,serif" font-size="14.00" fill="#000000">20</text>
</g>
<!-- 20&#45;&gt;109 -->
<g id="edge29" class="edge">
<title>20-&gt;109</title>
<path fill="none" stroke="#000000" d="M500.0187,-575.8314C500.8743,-568.131 501.8917,-558.9743 502.8426,-550.4166"/>
<polygon fill="#000000" stroke="#000000" points="506.3283,-550.7386 503.9541,-540.4133 499.3711,-549.9656 506.3283,-550.7386"/>
</g>
<!-- 20&#45;&gt;113 -->
<g id="edge42" class="edge">
<title>20-&gt;113</title>
<path fill="none" stroke="#000000" d="M478.9248,-580.7941C464.8428,-571.045 445.2883,-557.5073 428.4926,-545.8795"/>
<polygon fill="#000000" stroke="#000000" points="430.2188,-542.8177 420.0046,-540.0032 426.2343,-548.573 430.2188,-542.8177"/>
</g>
<!-- 27 -->
<g id="node30" class="node">
<title>27</title>
<ellipse fill="none" stroke="#000000" cx="584" cy="-594" rx="27" ry="18"/>
<text text-anchor="middle" x="584" y="-589.8" font-family="Times,serif" font-size="14.00" fill="#000000">27</text>
</g>
<!-- 27&#45;&gt;109 -->
<g id="edge30" class="edge">
<title>27-&gt;109</title>
<path fill="none" stroke="#000000" d="M567.8383,-579.0816C557.9043,-569.9116 544.9178,-557.9241 533.4115,-547.3029"/>
<polygon fill="#000000" stroke="#000000" points="535.4599,-544.4305 525.7378,-540.2195 530.7119,-549.5742 535.4599,-544.4305"/>
</g>
<!-- 27&#45;&gt;115 -->
<g id="edge48" class="edge">
<title>27-&gt;115</title>
<path fill="none" stroke="#000000" d="M584.8724,-575.8788C585.7462,-545.2556 584.9483,-481.7435 567,-432 563.5374,-422.4034 558.0205,-412.8398 552.3357,-404.4865"/>
<polygon fill="#000000" stroke="#000000" points="555.1081,-402.3467 546.4299,-396.2689 549.4238,-406.432 555.1081,-402.3467"/>
</g>
<!-- 110&#45;&gt;14 -->
<g id="edge31" class="edge">
<title>110-&gt;14</title>
<path fill="none" stroke="#000000" d="M341.1748,-215.9839C338.0765,-186.0375 331.3994,-124.1487 324,-72 322.7983,-63.5309 321.3292,-54.3425 319.9292,-45.9872"/>
<polygon fill="#000000" stroke="#000000" points="323.3514,-45.2346 318.2182,-35.9663 316.4513,-46.4128 323.3514,-45.2346"/>
</g>
<!-- 111&#45;&gt;9 -->
<g id="edge34" class="edge">
<title>111-&gt;9</title>
<path fill="none" stroke="#000000" d="M312.7289,-359.8314C311.7664,-352.131 310.6218,-342.9743 309.5521,-334.4166"/>
<polygon fill="#000000" stroke="#000000" points="313.0151,-333.9019 308.3017,-324.4133 306.0691,-334.7702 313.0151,-333.9019"/>
</g>
<!-- 112&#45;&gt;21 -->
<g id="edge37" class="edge">
<title>112-&gt;21</title>
<path fill="none" stroke="#000000" d="M459,-359.8314C459,-352.131 459,-342.9743 459,-334.4166"/>
<polygon fill="#000000" stroke="#000000" points="462.5001,-334.4132 459,-324.4133 455.5001,-334.4133 462.5001,-334.4132"/>
</g>
<!-- 113&#45;&gt;8 -->
<g id="edge40" class="edge">
<title>113-&gt;8</title>
<path fill="none" stroke="#000000" d="M392.2336,-503.8314C391.485,-496.131 390.5947,-486.9743 389.7627,-478.4166"/>
<polygon fill="#000000" stroke="#000000" points="393.2415,-478.0276 388.7902,-468.4133 386.2744,-478.7051 393.2415,-478.0276"/>
</g>
<!-- 114 -->
<g id="node35" class="node">
<title>114</title>
<polygon fill="none" stroke="#000000" points="352,-684 298,-684 298,-648 352,-648 352,-684"/>
<text text-anchor="middle" x="325" y="-661.8" font-family="Times,serif" font-size="14.00" fill="#000000">114</text>
</g>
<!-- 114&#45;&gt;12 -->
<g id="edge43" class="edge">
<title>114-&gt;12</title>
<path fill="none" stroke="#000000" d="M325,-647.8314C325,-640.131 325,-630.9743 325,-622.4166"/>
<polygon fill="#000000" stroke="#000000" points="328.5001,-622.4132 325,-612.4133 321.5001,-622.4133 328.5001,-622.4132"/>
</g>
<!-- 22 -->
<g id="node36" class="node">
<title>22</title>
<ellipse fill="none" stroke="#000000" cx="289" cy="-738" rx="27" ry="18"/>
<text text-anchor="middle" x="289" y="-733.8" font-family="Times,serif" font-size="14.00" fill="#000000">22</text>
</g>
<!-- 22&#45;&gt;114 -->
<g id="edge44" class="edge">
<title>22-&gt;114</title>
<path fill="none" stroke="#000000" d="M297.7146,-720.5708C301.8228,-712.3544 306.8196,-702.3608 311.4089,-693.1821"/>
<polygon fill="#000000" stroke="#000000" points="314.648,-694.5301 315.9897,-684.0206 308.387,-691.3996 314.648,-694.5301"/>
</g>
<!-- 23 -->
<g id="node37" class="node">
<title>23</title>
<ellipse fill="none" stroke="#000000" cx="361" cy="-738" rx="27" ry="18"/>
<text text-anchor="middle" x="361" y="-733.8" font-family="Times,serif" font-size="14.00" fill="#000000">23</text>
</g>
<!-- 23&#45;&gt;114 -->
<g id="edge45" class="edge">
<title>23-&gt;114</title>
<path fill="none" stroke="#000000" d="M352.2854,-720.5708C348.1772,-712.3544 343.1804,-702.3608 338.5911,-693.1821"/>
<polygon fill="#000000" stroke="#000000" points="341.613,-691.3996 334.0103,-684.0206 335.352,-694.5301 341.613,-691.3996"/>
</g>
<!-- 115&#45;&gt;21 -->
<g id="edge46" class="edge">
<title>115-&gt;21</title>
<path fill="none" stroke="#000000" d="M512.8314,-359.8314C503.2706,-350.2706 491.4651,-338.4651 481.3481,-328.3481"/>
<polygon fill="#000000" stroke="#000000" points="483.5519,-325.6021 474.0059,-321.0059 478.6021,-330.5519 483.5519,-325.6021"/>
</g>
</g>
</svg>